<mxfile host="Electron" agent="Mozilla/5.0 (Windows NT 10.0; Win64; x64) AppleWebKit/537.36 (KHTML, like Gecko) draw.io/26.0.7 Chrome/128.0.6613.186 Electron/32.2.5 Safari/537.36" version="26.0.7">
  <diagram name="페이지-1" id="wadCSsHxskJAJzJymBa7">
    <mxGraphModel dx="946" dy="639" grid="1" gridSize="10" guides="1" tooltips="1" connect="1" arrows="1" fold="1" page="1" pageScale="1" pageWidth="583" pageHeight="827" background="#ffffff" math="0" shadow="0">
      <root>
        <mxCell id="0" />
        <mxCell id="1" parent="0" />
        <mxCell id="LtnwMzzN1YlE4SjchFOS-1" value="시스템 모니터링 프로세스" style="swimlane;whiteSpace=wrap;html=1;swimlaneFillColor=#919191;startSize=40;" parent="1" vertex="1">
          <mxGeometry x="80" y="84" width="370" height="330" as="geometry" />
        </mxCell>
        <mxCell id="LtnwMzzN1YlE4SjchFOS-2" value="&lt;b&gt;&lt;font color=&quot;#121212&quot; style=&quot;font-size: 14px;&quot;&gt;서버별 메시지 발생&lt;/font&gt;&lt;/b&gt;" style="rounded=0;whiteSpace=wrap;html=1;strokeColor=#000000;fillColor=#dbdadc;" parent="LtnwMzzN1YlE4SjchFOS-1" vertex="1">
          <mxGeometry x="20" y="50" width="140" height="40" as="geometry" />
        </mxCell>
        <mxCell id="LtnwMzzN1YlE4SjchFOS-3" value="&lt;font color=&quot;#121212&quot;&gt;&lt;span style=&quot;font-size: 14px;&quot;&gt;&lt;b&gt;모니터링 콘솔로 전송&lt;/b&gt;&lt;/span&gt;&lt;/font&gt;" style="rounded=0;whiteSpace=wrap;html=1;strokeColor=#000000;fillColor=#dbdadc;" parent="LtnwMzzN1YlE4SjchFOS-1" vertex="1">
          <mxGeometry x="20" y="120" width="140" height="40" as="geometry" />
        </mxCell>
        <mxCell id="LtnwMzzN1YlE4SjchFOS-4" value="&lt;b&gt;&lt;font style=&quot;font-size: 14px;&quot; color=&quot;#121212&quot;&gt;장애관리&lt;/font&gt;&lt;/b&gt;&lt;div&gt;&lt;b&gt;&lt;font style=&quot;font-size: 14px;&quot; color=&quot;#121212&quot;&gt;프로세스로 이행&lt;/font&gt;&lt;/b&gt;&lt;/div&gt;" style="rounded=0;whiteSpace=wrap;html=1;strokeColor=#000000;fillColor=#dbdadc;" parent="LtnwMzzN1YlE4SjchFOS-1" vertex="1">
          <mxGeometry x="20" y="270" width="140" height="40" as="geometry" />
        </mxCell>
        <mxCell id="LtnwMzzN1YlE4SjchFOS-5" value="&lt;b&gt;&lt;font style=&quot;font-size: 14px;&quot; color=&quot;#121212&quot;&gt;장애여부&lt;/font&gt;&lt;/b&gt;" style="rhombus;whiteSpace=wrap;html=1;fillColor=#dbdadc;" parent="LtnwMzzN1YlE4SjchFOS-1" vertex="1">
          <mxGeometry x="20" y="190" width="140" height="50" as="geometry" />
        </mxCell>
        <mxCell id="LtnwMzzN1YlE4SjchFOS-6" value="&lt;b&gt;&lt;font style=&quot;font-size: 14px;&quot; color=&quot;#121212&quot;&gt;해당 메시지 처리&lt;/font&gt;&lt;/b&gt;" style="rounded=0;whiteSpace=wrap;html=1;strokeColor=#000000;fillColor=#dbdadc;" parent="LtnwMzzN1YlE4SjchFOS-1" vertex="1">
          <mxGeometry x="200" y="270" width="140" height="40" as="geometry" />
        </mxCell>
        <mxCell id="LtnwMzzN1YlE4SjchFOS-7" value="" style="edgeStyle=elbowEdgeStyle;elbow=horizontal;endArrow=classic;html=1;curved=0;rounded=0;endSize=8;startSize=8;strokeWidth=2;entryX=0;entryY=0.5;entryDx=0;entryDy=0;exitX=1;exitY=0.5;exitDx=0;exitDy=0;" parent="LtnwMzzN1YlE4SjchFOS-1" source="LtnwMzzN1YlE4SjchFOS-5" target="LtnwMzzN1YlE4SjchFOS-6" edge="1">
          <mxGeometry width="50" height="50" relative="1" as="geometry">
            <mxPoint x="160" y="220" as="sourcePoint" />
            <mxPoint x="230" y="210" as="targetPoint" />
            <Array as="points">
              <mxPoint x="180" y="270" />
            </Array>
          </mxGeometry>
        </mxCell>
        <mxCell id="LtnwMzzN1YlE4SjchFOS-8" value="" style="endArrow=classic;html=1;rounded=0;strokeWidth=2;entryX=0.361;entryY=0.046;entryDx=0;entryDy=0;entryPerimeter=0;" parent="LtnwMzzN1YlE4SjchFOS-1" edge="1">
          <mxGeometry width="50" height="50" relative="1" as="geometry">
            <mxPoint x="89.66" y="90" as="sourcePoint" />
            <mxPoint x="90.19999999999996" y="121.84000000000003" as="targetPoint" />
          </mxGeometry>
        </mxCell>
        <mxCell id="LtnwMzzN1YlE4SjchFOS-9" value="" style="endArrow=classic;html=1;rounded=0;strokeWidth=2;entryX=0.361;entryY=0.046;entryDx=0;entryDy=0;entryPerimeter=0;" parent="LtnwMzzN1YlE4SjchFOS-1" edge="1">
          <mxGeometry width="50" height="50" relative="1" as="geometry">
            <mxPoint x="89.66" y="160" as="sourcePoint" />
            <mxPoint x="90.19999999999996" y="191.84000000000003" as="targetPoint" />
          </mxGeometry>
        </mxCell>
        <mxCell id="LtnwMzzN1YlE4SjchFOS-10" value="" style="endArrow=classic;html=1;rounded=0;strokeWidth=2;entryX=0.361;entryY=0.046;entryDx=0;entryDy=0;entryPerimeter=0;" parent="LtnwMzzN1YlE4SjchFOS-1" edge="1">
          <mxGeometry width="50" height="50" relative="1" as="geometry">
            <mxPoint x="89.66" y="240" as="sourcePoint" />
            <mxPoint x="90.19999999999996" y="271.84000000000003" as="targetPoint" />
          </mxGeometry>
        </mxCell>
        <mxCell id="LtnwMzzN1YlE4SjchFOS-12" value="&lt;b&gt;&lt;font style=&quot;font-size: 10px;&quot;&gt;예&lt;/font&gt;&lt;/b&gt;" style="text;html=1;align=center;verticalAlign=middle;whiteSpace=wrap;rounded=0;" parent="LtnwMzzN1YlE4SjchFOS-1" vertex="1">
          <mxGeometry x="30" y="236" width="60" height="30" as="geometry" />
        </mxCell>
        <mxCell id="LtnwMzzN1YlE4SjchFOS-13" value="&lt;b&gt;&lt;font style=&quot;font-size: 10px;&quot;&gt;아니요&lt;/font&gt;&lt;/b&gt;" style="text;html=1;align=center;verticalAlign=middle;whiteSpace=wrap;rounded=0;" parent="LtnwMzzN1YlE4SjchFOS-1" vertex="1">
          <mxGeometry x="130" y="186" width="60" height="30" as="geometry" />
        </mxCell>
      </root>
    </mxGraphModel>
  </diagram>
</mxfile>
